# ProBuilder 5.0.4
# https://unity3d.com/unity/features/worldbuilding/probuilder
# 8/18/2023 10:35:31 PM

mtllib ./Minus.mtl
o Minus

g Minus
v -0.1278072 -0.03653215 0.03957167
v -0.1278072 0.03653218 0.03957167
v 0.1278072 -0.03653218 0.03957167
v 0.1278072 0.03653215 0.03957167
v -0.1278072 0.03653218 -0.03957167
v 0.1278072 0.03653215 -0.03957167
v -0.1278072 -0.03653215 -0.03957167
v 0.1278072 -0.03653218 -0.03957167

vt 0.03653216 -0.1278072
vt -0.03653216 -0.1278072
vt 0.03653216 0.1278072
vt -0.03653216 0.1278072
vt 0.03957167 -0.1278072
vt -0.03957167 -0.1278072
vt 0.03957167 0.1278072
vt -0.03957167 0.1278072
vt -0.03653216 0.03957167
vt 0.03653216 0.03957167
vt -0.03653216 -0.03957167
vt 0.03653216 -0.03957167

vn 0 0 1
vn 1.192093E-07 1 0
vn 0 0 -1
vn -1.192093E-07 -1 0
vn 1 -1.192093E-07 0
vn -1 1.192093E-07 0

usemtl Lit
f 3/3/1 4/4/1 2/2/1 1/1/1
f 4/7/2 6/8/2 5/6/2 2/5/2
f 6/3/3 8/4/3 7/2/3 5/1/3
f 8/7/4 3/8/4 1/6/4 7/5/4
f 8/11/5 6/12/5 4/10/5 3/9/5
f 1/10/6 2/9/6 5/11/6 7/12/6

